<svg xmlns="http://www.w3.org/2000/svg" xmlns:xlink="http://www.w3.org/1999/xlink" id="Capa_1" x="0px" y="0px" width="249.082px" height="58.657px" viewBox="0 0 249.082 58.657" xml:space="preserve">
<g>
	<g>
		<ellipse fill="#1CA5CC" cx="43.56" cy="43.638" rx="15.456" ry="8.399"></ellipse>
		<path fill="#1CA5CC" d="M12.828,38.06c0-1.594,0.354-3.134,1.018-4.602c1.022-2.732,3.164-4.971,5.902-6.784    c5.353-3.841,13.357-6.362,22.378-6.604c0.476-0.014,0.955-0.021,1.435-0.021c1.186,0,2.353,0.041,3.506,0.119    c0.193,0.013,0.385,0.027,0.577,0.043c0.011,0,0.021,0,0.021,0l0.012-20.075c-0.012-0.004-0.022-0.004-0.033-0.004V0.129    c0,0-0.522-0.042-1.454-0.072C45.318,0.023,44.441,0,43.563,0c-1.217,0-2.418,0.043-3.61,0.109C17.585,1.345,0,13.953,0,29.337    c0,2.13,0.346,4.203,0.984,6.201c4.002,12.529,19.879,22.076,39.31,23.045c0.312,0.02,0.62,0.039,0.933,0.053    c0.429,0.012,0.861,0.02,1.292,0.021v-2.16V56.18v-0.125c-0.632-0.012-1.26-0.034-1.878-0.065    C25.038,55.126,12.828,47.43,12.828,38.06z"></path>
		<path fill="#1CA5CC" d="M49.719,23.596v6.591c9.935,1.389,17.248,6.074,17.248,11.646c0,6.483-9.905,11.769-22.326,12.05v1.29    c14.591-0.324,26.258-7.352,26.258-15.985C70.899,31.585,61.847,25.225,49.719,23.596z"></path>
	</g>
	<g>
		<g>
			<path fill="#394049" d="M87.47,42.791v-9.972c0-5.71,4.341-9.737,10.404-9.737c5.631,0,9.736,3.323,9.736,8.094v1.563h-2.386     v-1.172c0-3.792-2.854-6.256-7.469-6.256c-4.534,0-7.821,2.972-7.821,7.547v9.541c0,4.537,3.248,7.429,8.018,7.429     c4.574,0,7.272-2.502,7.272-6.294v-0.665h2.386v1.094c0,4.966-4.026,8.055-9.658,8.055C92.046,52.019,87.47,48.852,87.47,42.791z     "></path>
			<path fill="#394049" d="M110.652,44.159v-4.224c0-5.357,3.481-8.329,8.134-8.329c4.341,0,7.508,2.659,7.508,7.665v2.854h-13.256     v2.308c0,3.442,2.19,5.631,5.943,5.631c2.503,0,4.146-1.212,5.201-2.503l1.721,1.096c-1.799,2.581-4.497,3.362-7.078,3.362     C114.055,52.019,110.652,49.516,110.652,44.159z M124.026,40.484v-1.331c0-3.049-1.68-5.63-5.435-5.63     c-3.558,0-5.553,2.776-5.553,5.904v1.057H124.026z"></path>
			<path fill="#394049" d="M130.121,32.036h2.19v3.716h0.078c1.368-2.776,3.987-4.185,6.725-4.185c4.067,0,6.063,2.737,6.063,6.139     v13.805h-2.308V38.763c0-3.638-1.799-5.162-4.458-5.162c-3.089,0-6.021,2.424-6.021,6.256v11.654h-2.269V32.036z"></path>
			<path fill="#394049" d="M151.388,47.639V33.953h-3.638v-1.877h3.638v-6.138h2.307v6.138h5.787v1.877h-5.787v13.061     c0,2.111,1.056,2.775,3.05,2.775c1.017,0,2.034-0.195,2.972-0.43v1.995c-1.252,0.391-2.815,0.508-3.636,0.508     C153.656,51.862,151.388,50.925,151.388,47.639z"></path>
			<path fill="#394049" d="M162.568,32.036h2.229v4.146h0.079c1.719-3.481,4.614-4.419,7.232-4.419c0.471,0,0.979,0.039,1.369,0.117     v2.151c-0.664-0.118-1.328-0.118-1.799-0.118c-3.754,0-6.686,2.347-6.803,6.766v10.832h-2.308V32.036z"></path>
			<path fill="#394049" d="M174.333,46.388c0-4.38,4.027-5.826,7.234-5.826h5.709V37.55c0-3.05-2.033-4.105-4.966-4.105     c-2.425,0-5.006,0.86-5.006,3.401v0.625h-2.111v-0.586c0-3.87,3.598-5.318,7.234-5.318c3.794,0,7.156,1.37,7.156,5.591v9.463     c0,1.134,0.156,4.028,0.273,4.889h-2.269c-0.078-0.664-0.156-2.503-0.156-3.089h-0.078c-1.604,3.011-4.224,3.519-6.609,3.519     C177.227,51.94,174.333,49.985,174.333,46.388z M187.277,44.472v-2.19h-5.24c-2.658,0-5.396,0.666-5.396,3.989     c0,2.62,2.268,3.871,4.731,3.871C185.283,50.142,187.277,47.836,187.277,44.472z"></path>
			<path fill="#1CA5CC" d="M194.348,23.59h2.464v25.73h14.703v2.19h-17.167V23.59z"></path>
			<path fill="#1CA5CC" d="M213.777,46.388c0-4.38,4.027-5.826,7.234-5.826h5.709V37.55c0-3.05-2.033-4.105-4.966-4.105     c-2.425,0-5.006,0.86-5.006,3.401v0.625h-2.111v-0.586c0-3.87,3.599-5.318,7.234-5.318c3.794,0,7.156,1.37,7.156,5.591v9.463     c0,1.134,0.156,4.028,0.273,4.889h-2.269c-0.078-0.664-0.156-2.503-0.156-3.089h-0.078c-1.604,3.011-4.224,3.519-6.609,3.519     C216.67,51.94,213.777,49.985,213.777,46.388z M226.72,44.472v-2.19h-5.239c-2.659,0-5.396,0.666-5.396,3.989     c0,2.62,2.269,3.871,4.731,3.871C224.726,50.142,226.72,47.836,226.72,44.472z"></path>
			<path fill="#1CA5CC" d="M235.826,48.031h-0.117v3.479h-2.151V23.629h2.269v11.888h0.117c1.291-2.817,4.028-3.95,6.258-3.95     c4.104,0,6.881,2.659,6.881,6.727v6.334c0,5.239-3.636,7.391-7.311,7.391C239.268,52.019,236.646,50.572,235.826,48.031z      M246.737,44.94v-6.646c0-2.698-1.955-4.732-5.241-4.732c-2.698,0-5.67,2.463-5.67,6.49v3.872c0,3.753,2.659,6.139,5.709,6.139     C244.077,50.063,246.737,48.461,246.737,44.94z"></path>
		</g>
	</g>
</g>
</svg>